<svg width="24" height="24" viewBox="0 0 24 24" fill="none" xmlns="http://www.w3.org/2000/svg">
<path d="M24 12C24 18.6274 18.6274 24 12 24C5.37258 24 0 18.6274 0 12C0 5.37258 5.37258 0 12 0C18.6274 0 24 5.37258 24 12Z" fill="#0D100F"/>
<path fill-rule="evenodd" clip-rule="evenodd" d="M12 22.56C17.8321 22.56 22.56 17.8321 22.56 12C22.56 6.16787 17.8321 1.44 12 1.44C6.16787 1.44 1.44 6.16787 1.44 12C1.44 17.8321 6.16787 22.56 12 22.56ZM12 24C18.6274 24 24 18.6274 24 12C24 5.37258 18.6274 0 12 0C5.37258 0 0 5.37258 0 12C0 18.6274 5.37258 24 12 24Z" fill="url(#paint0_linear_835_1904)"/>
<path d="M13.0076 13.9008C12.6483 14.7467 13.2718 15.6835 14.194 15.6835L18.7495 15.6835C19.7882 15.6835 20.3998 14.5222 19.8093 13.6713L14.8821 6.57194C14.3369 5.78641 13.2274 5.64649 12.5028 6.27187L4.17225 13.4616C3.11091 14.3776 4.0784 16.0834 5.41411 15.6511L12.2172 13.4493C12.2392 13.4422 12.2603 13.4326 12.2801 13.4207C12.5769 13.2434 12.3968 12.7888 12.0584 12.861L7.6521 13.8013C7.07914 13.9235 6.76302 13.1635 7.25499 12.8465L12.2732 9.61303C13.3386 8.92647 14.6539 10.026 14.1594 11.1899L13.0076 13.9008Z" fill="url(#paint1_linear_835_1904)"/>
<path fill-rule="evenodd" clip-rule="evenodd" d="M14.194 15.4435L18.7495 15.4435C19.5964 15.4435 20.0911 14.4984 19.6121 13.8082L14.6849 6.70878C14.2211 6.04057 13.2765 5.92112 12.6596 6.45356L4.32906 13.6433C3.47008 14.3846 4.24828 15.7761 5.3402 15.4227L12.1433 13.2209C12.1481 13.2194 12.1527 13.2173 12.157 13.2147C12.1803 13.2008 12.1858 13.1881 12.188 13.1805C12.1912 13.1698 12.1914 13.1536 12.1843 13.1357C12.1772 13.1177 12.1658 13.1058 12.1557 13.0999C12.1484 13.0956 12.1352 13.09 12.1084 13.0957L7.70219 14.036C6.87333 14.2129 6.40455 13.109 7.12499 12.6448L12.1432 9.41129C13.4039 8.59891 14.9688 9.89852 14.3803 11.2838L13.2285 13.9947C12.937 14.6808 13.4422 15.4435 14.194 15.4435ZM14.194 15.6835C13.2718 15.6835 12.6483 14.7467 13.0076 13.9008L14.1594 11.1899C14.6539 10.026 13.3386 8.92647 12.2732 9.61303L7.25499 12.8465C6.76302 13.1635 7.07914 13.9235 7.6521 13.8013L12.0584 12.861C12.3968 12.7888 12.5769 13.2434 12.2801 13.4207C12.2603 13.4326 12.2392 13.4422 12.2172 13.4493L5.41411 15.6511C4.0784 16.0834 3.11091 14.3776 4.17225 13.4616L12.5028 6.27187C13.2274 5.64649 14.3369 5.78641 14.8821 6.57194L19.8093 13.6713C20.3998 14.5222 19.7882 15.6835 18.7495 15.6835L14.194 15.6835Z" fill="url(#paint2_linear_835_1904)"/>
<defs>
<linearGradient id="paint0_linear_835_1904" x1="12" y1="0" x2="12" y2="24" gradientUnits="userSpaceOnUse">
<stop stop-color="#00C38B"/>
<stop offset="1" stop-color="#019369"/>
</linearGradient>
<linearGradient id="paint1_linear_835_1904" x1="11.88" y1="5.88" x2="11.88" y2="15.72" gradientUnits="userSpaceOnUse">
<stop stop-color="#00C38B"/>
<stop offset="1" stop-color="#009268"/>
</linearGradient>
<linearGradient id="paint2_linear_835_1904" x1="13.0457" y1="4.23385" x2="12.9184" y2="15.6936" gradientUnits="userSpaceOnUse">
<stop stop-color="white" stop-opacity="0.65"/>
<stop offset="1" stop-color="white" stop-opacity="0"/>
</linearGradient>
</defs>
</svg>
