<svg width="48" height="48" viewBox="0 0 48 48" fill="none" xmlns="http://www.w3.org/2000/svg">
<g clip-path="url(#clip0_24_42)">
<path d="M36.7291 16.2358H32.6008C32.3626 16.2355 32.1272 16.1835 31.9103 16.0833C31.6934 15.983 31.5 15.8368 31.3431 15.6544L29.6686 13.7297C29.5448 13.5887 29.3932 13.4759 29.2237 13.3986C29.0541 13.3214 28.8705 13.2815 28.6847 13.2815C28.499 13.2815 28.3154 13.3214 28.1458 13.3986C27.9763 13.4759 27.8247 13.5887 27.7009 13.7297L26.2657 15.3794C26.0344 15.6479 25.7496 15.8631 25.4303 16.0108C25.111 16.1584 24.7644 16.2351 24.4137 16.2358H1.82008C1.16868 18.1365 0.756432 20.1137 0.593178 22.1199H21.9213C22.1061 22.1197 22.2889 22.0813 22.4587 22.007C22.6285 21.9327 22.7817 21.8242 22.909 21.6879L24.8999 19.5746C25.023 19.4452 25.1706 19.3423 25.3336 19.2721C25.4967 19.2019 25.6719 19.1659 25.849 19.1661H25.9261C26.1123 19.1669 26.2962 19.2072 26.4662 19.2843C26.6362 19.3614 26.7887 19.4736 26.9138 19.6139L28.5883 21.5386C28.7449 21.7214 28.9383 21.8679 29.1552 21.9682C29.3722 22.0685 29.6078 22.1202 29.8461 22.1199H47.2466C47.087 20.1131 46.6746 18.1355 46.0196 16.2358H36.76H36.7291Z" fill="#F5F5F5"/>
<path d="M13.495 34.4934C13.6797 34.4922 13.8622 34.4534 14.0319 34.3792C14.2015 34.3049 14.3548 34.1969 14.4827 34.0613L16.4658 31.948C16.5898 31.8196 16.7375 31.7175 16.9004 31.6474C17.0632 31.5772 17.2381 31.5406 17.415 31.5395H17.4998C17.686 31.5403 17.8699 31.5806 18.0399 31.6577C18.2099 31.7348 18.3624 31.847 18.4875 31.9873L20.1543 33.912C20.3119 34.0936 20.5054 34.2393 20.7222 34.3395C20.9389 34.4397 21.174 34.4921 21.412 34.4934H45.0011C45.8998 32.6122 46.5486 30.6175 46.9302 28.562H24.2825C24.0463 28.5612 23.8129 28.5097 23.5975 28.4108C23.3821 28.312 23.1896 28.1681 23.0325 27.9885L21.358 26.0638C21.2345 25.921 21.0826 25.8065 20.9123 25.7279C20.742 25.6494 20.5573 25.6085 20.3703 25.6082C20.1844 25.6076 20.0005 25.6481 19.8313 25.7267C19.6622 25.8054 19.5117 25.9204 19.3903 26.0638L17.9551 27.7136C17.7216 27.9808 17.4352 28.1946 17.1146 28.3408C16.7941 28.4871 16.4467 28.5625 16.0954 28.562H0.909561C1.28741 30.6226 1.93357 32.6225 2.83094 34.5091L13.495 34.4934Z" fill="#F5F5F5"/>
<path d="M30.2319 9.80183C30.4178 9.80173 30.6018 9.76341 30.7729 9.68916C30.9439 9.61492 31.0985 9.50627 31.2273 9.36974L33.2104 7.26432C33.3327 7.1331 33.4799 7.02854 33.643 6.95696C33.8062 6.88539 33.9819 6.8483 34.1595 6.84795H34.2444C34.4304 6.84741 34.6143 6.88785 34.7834 6.96651C34.9526 7.04516 35.103 7.16016 35.2244 7.3036L36.8989 9.22834C37.0578 9.40776 37.2517 9.55145 37.4683 9.6502C37.6849 9.74895 37.9193 9.8006 38.1566 9.80183H42.6399C40.4588 6.84516 37.632 4.44567 34.3829 2.79312C31.1339 1.14057 27.5518 0.280273 23.9199 0.280273C20.2879 0.280273 16.7058 1.14057 13.4568 2.79312C10.2078 4.44567 7.38094 6.84516 5.19987 9.80183H30.2319Z" fill="#F5F5F5"/>
<path d="M21.2191 40.3854H15.0846C14.8475 40.385 14.6133 40.333 14.3977 40.2327C14.182 40.1324 13.99 39.9863 13.8345 39.804L12.1678 37.8793C12.0433 37.7381 11.891 37.6252 11.7209 37.5479C11.5507 37.4706 11.3664 37.4307 11.1801 37.4307C10.9937 37.4307 10.8095 37.4706 10.6393 37.5479C10.4691 37.6252 10.3169 37.7381 10.1924 37.8793L8.74943 39.5605C8.5185 39.8293 8.23379 40.0448 7.9144 40.1925C7.595 40.3402 7.24828 40.4167 6.89749 40.4168H6.80489C8.99482 42.8084 11.6448 44.7156 14.5899 46.0196C17.535 47.3236 20.7122 47.9965 23.9237 47.9965C27.1353 47.9965 30.3125 47.3236 33.2576 46.0196C36.2027 44.7156 38.8526 42.8084 41.0426 40.4168L21.2191 40.3854Z" fill="#F5F5F5"/>
</g>
<defs>
<clipPath id="clip0_24_42">
<rect width="48" height="48" fill="white"/>
</clipPath>
</defs>
</svg>
