<svg width="180" height="40" viewBox="0 0 180 40" fill="none" xmlns="http://www.w3.org/2000/svg">
<path d="M83.3587 12.4622H77.6714L76.7271 15.2308H72.864L78.4226 0.164772H82.6505L88.209 15.2308H84.303L83.3587 12.4622ZM82.4144 9.67224L80.5258 4.09223L78.6157 9.67224H82.4144Z" fill="#F5F5F5"/>
<path d="M96.8895 3.105C97.8768 3.105 98.7567 3.35539 99.5293 3.85616C100.316 4.34262 100.931 5.05085 101.375 5.98085C101.833 6.89654 102.062 7.98393 102.062 9.243C102.062 10.4878 101.833 11.5752 101.375 12.5052C100.931 13.4352 100.316 14.1505 99.5293 14.6513C98.7567 15.1378 97.8768 15.381 96.8895 15.381C95.9738 15.381 95.1869 15.1735 94.5288 14.7586C93.8706 14.3437 93.3913 13.7785 93.0908 13.0632V20.9395H89.4209V3.25523H93.0908V5.42285C93.3913 4.70746 93.8706 4.14231 94.5288 3.72739C95.1869 3.31247 95.9738 3.105 96.8895 3.105ZM95.7092 6.32423C94.9365 6.32423 94.2998 6.58893 93.7991 7.11831C93.3126 7.63339 93.0694 8.34162 93.0694 9.243C93.0694 10.1301 93.3126 10.8383 93.7991 11.3677C94.2998 11.8971 94.9365 12.1618 95.7092 12.1618C96.4961 12.1618 97.1256 11.9042 97.5978 11.3892C98.0842 10.8741 98.3275 10.1587 98.3275 9.243C98.3275 8.32731 98.0842 7.61193 97.5978 7.09685C97.1256 6.58177 96.4961 6.32423 95.7092 6.32423Z" fill="#F5F5F5"/>
<path d="M110.533 12.0759V15.2308H108.881C107.479 15.2308 106.384 14.8874 105.597 14.2006C104.825 13.4995 104.438 12.3478 104.438 10.7453V6.3457H102.829V3.25523H104.438V0.315003H108.108V3.25523H110.512V6.3457H108.108V10.8097C108.108 11.2819 108.201 11.6109 108.387 11.7969C108.588 11.9829 108.917 12.0759 109.374 12.0759H110.533Z" fill="#F5F5F5"/>
<path d="M117.983 3.105C119.17 3.105 120.229 3.35539 121.159 3.85616C122.103 4.34262 122.84 5.05085 123.37 5.98085C123.913 6.91085 124.185 7.99823 124.185 9.243C124.185 10.4878 123.913 11.5752 123.37 12.5052C122.84 13.4352 122.103 14.1505 121.159 14.6513C120.229 15.1378 119.17 15.381 117.983 15.381C116.795 15.381 115.729 15.1378 114.785 14.6513C113.841 14.1505 113.097 13.4352 112.553 12.5052C112.024 11.5752 111.759 10.4878 111.759 9.243C111.759 7.99823 112.024 6.91085 112.553 5.98085C113.097 5.05085 113.841 4.34262 114.785 3.85616C115.729 3.35539 116.795 3.105 117.983 3.105ZM117.983 6.28131C117.282 6.28131 116.688 6.53885 116.202 7.05393C115.729 7.5547 115.493 8.28439 115.493 9.243C115.493 10.2016 115.729 10.9313 116.202 11.4321C116.688 11.9328 117.282 12.1832 117.983 12.1832C118.684 12.1832 119.271 11.9328 119.743 11.4321C120.215 10.9313 120.451 10.2016 120.451 9.243C120.451 8.28439 120.215 7.5547 119.743 7.05393C119.271 6.53885 118.684 6.28131 117.983 6.28131Z" fill="#F5F5F5"/>
<path d="M130.23 3.105C131.747 3.105 132.956 3.48416 133.857 4.24246C134.773 5.00077 135.345 6.00231 135.574 7.24708H132.14C132.04 6.76062 131.811 6.38146 131.454 6.10962C131.11 5.82346 130.674 5.68039 130.145 5.68039C129.73 5.68039 129.415 5.77339 129.2 5.95939C128.986 6.13108 128.878 6.38146 128.878 6.71054C128.878 7.08254 129.071 7.36154 129.458 7.54754C129.858 7.73354 130.481 7.91954 131.325 8.10554C132.241 8.32016 132.992 8.54193 133.578 8.77085C134.165 8.98547 134.673 9.34316 135.102 9.84393C135.531 10.3447 135.746 11.0172 135.746 11.8613C135.746 12.5481 135.56 13.1562 135.188 13.6855C134.816 14.2149 134.279 14.6299 133.578 14.9303C132.877 15.2308 132.047 15.381 131.089 15.381C129.472 15.381 128.177 15.0233 127.204 14.3079C126.231 13.5925 125.638 12.5695 125.423 11.2389H128.964C129.021 11.754 129.236 12.1475 129.608 12.4193C129.994 12.6912 130.488 12.8271 131.089 12.8271C131.504 12.8271 131.819 12.7341 132.033 12.5481C132.248 12.3478 132.355 12.0902 132.355 11.7755C132.355 11.3605 132.155 11.0672 131.754 10.8955C131.368 10.7095 130.731 10.5164 129.844 10.3161C128.957 10.1301 128.227 9.92977 127.655 9.71516C127.083 9.50054 126.589 9.15716 126.174 8.685C125.759 8.19854 125.552 7.54039 125.552 6.71054C125.552 5.63747 125.96 4.77185 126.775 4.1137C127.591 3.44123 128.742 3.105 130.23 3.105Z" fill="#F5F5F5"/>
<path d="M155.123 15.2308H151.453L145.315 5.91646V15.2308H141.645V0.0574646H145.315L151.453 9.45762V0.0574646H155.123V15.2308Z" fill="#F5F5F5"/>
<path d="M167.337 0.0574646V2.97623H161.113V6.30277H165.92V9.09277H161.113V15.2308H157.443V0.0574646H167.337Z" fill="#F5F5F5"/>
<path d="M179.91 0.0574646V2.97623H175.789V15.2308H172.098V2.97623H168.02V0.0574646H179.91Z" fill="#F5F5F5"/>
<path d="M91.0205 23.3571V38.4231H87.3506V29.0014L84.0884 38.4231H80.9121L77.6285 28.98V38.4231H73.9586V23.3571H78.444L82.5432 33.8518L86.5565 23.3571H91.0205Z" fill="#F5F5F5"/>
<path d="M97.89 26.2973C98.8057 26.2973 99.5926 26.5048 100.251 26.9197C100.909 27.3346 101.395 27.8997 101.71 28.6151V26.4475H105.359V38.4231H101.71V36.2554C101.395 36.9708 100.909 37.536 100.251 37.9509C99.5926 38.3658 98.8057 38.5733 97.89 38.5733C96.9028 38.5733 96.0157 38.3301 95.2288 37.8436C94.4562 37.3428 93.8409 36.6274 93.3831 35.6974C92.9396 34.7674 92.7178 33.6801 92.7178 32.4353C92.7178 31.1762 92.9396 30.0888 93.3831 29.1731C93.8409 28.2431 94.4562 27.5349 95.2288 27.0484C96.0157 26.5477 96.9028 26.2973 97.89 26.2973ZM99.0704 29.5165C98.2835 29.5165 97.6468 29.7741 97.1603 30.2891C96.6882 30.8042 96.4521 31.5196 96.4521 32.4353C96.4521 33.351 96.6882 34.0664 97.1603 34.5814C97.6468 35.0965 98.2835 35.3541 99.0704 35.3541C99.843 35.3541 100.473 35.0894 100.959 34.56C101.46 34.0306 101.71 33.3224 101.71 32.4353C101.71 31.5339 101.46 30.8257 100.959 30.3106C100.473 29.7812 99.843 29.5165 99.0704 29.5165Z" fill="#F5F5F5"/>
<path d="M111.341 28.701C111.799 27.9713 112.385 27.3918 113.101 26.9626C113.83 26.5334 114.617 26.3188 115.461 26.3188V30.2462H114.41C113.437 30.2462 112.678 30.4537 112.135 30.8686C111.605 31.2835 111.341 31.9846 111.341 32.9718V38.4231H107.671V26.4475H111.341V28.701Z" fill="#F5F5F5"/>
<path d="M124.037 38.4231L120.453 33.3367V38.4231H116.783V22.5415H120.453V31.2549L124.037 26.4475H128.35L123.522 32.4353L128.458 38.4231H124.037Z" fill="#F5F5F5"/>
<path d="M140.958 32.1134C140.958 32.4138 140.922 32.7429 140.851 33.1006H132.545C132.588 34.002 132.817 34.653 133.232 35.0536C133.647 35.4399 134.176 35.6331 134.82 35.6331C135.364 35.6331 135.814 35.4971 136.172 35.2253C136.53 34.9534 136.766 34.6029 136.88 34.1737H140.765C140.607 35.0178 140.264 35.7761 139.735 36.4486C139.205 37.1067 138.533 37.629 137.717 38.0153C136.902 38.3873 135.993 38.5733 134.992 38.5733C133.818 38.5733 132.774 38.3301 131.858 37.8436C130.957 37.3428 130.249 36.6274 129.734 35.6974C129.218 34.7674 128.961 33.6801 128.961 32.4353C128.961 31.1762 129.211 30.0888 129.712 29.1731C130.227 28.2431 130.943 27.5349 131.858 27.0484C132.774 26.5477 133.818 26.2973 134.992 26.2973C136.179 26.2973 137.224 26.5405 138.125 27.027C139.026 27.5134 139.72 28.2002 140.207 29.0873C140.708 29.9601 140.958 30.9688 140.958 32.1134ZM137.245 31.5554C137.259 30.7684 137.045 30.1818 136.601 29.7955C136.172 29.3949 135.635 29.1946 134.992 29.1946C134.319 29.1946 133.761 29.3949 133.318 29.7955C132.874 30.1961 132.624 30.7828 132.566 31.5554H137.245Z" fill="#F5F5F5"/>
<path d="M149.438 35.2682V38.4231H147.786C146.384 38.4231 145.289 38.0797 144.502 37.3929C143.73 36.6918 143.343 35.5401 143.343 33.9376V29.538H141.734V26.4475H143.343V23.5073H147.013V26.4475H149.417V29.538H147.013V34.002C147.013 34.4741 147.106 34.8032 147.292 34.9892C147.492 35.1752 147.822 35.2682 148.279 35.2682H149.438Z" fill="#F5F5F5"/>
<path d="M36.6302 31.8581C35.2397 35.1447 37.6523 38.785 41.2209 38.785L58.8479 38.7849C62.8671 38.7849 65.2336 34.2725 62.9485 30.9662L43.8831 3.38091C41.7736 0.32865 37.4805 -0.215043 34.6767 2.21496L2.44238 30.1514C-1.6644 33.7106 2.07925 40.3385 7.24763 38.6588L33.5716 30.1035C33.6566 30.0758 33.7383 30.0387 33.815 29.9926C34.9633 29.3036 34.2665 27.5371 32.957 27.8177L15.9074 31.4712C13.6903 31.9463 12.4671 28.9933 14.3708 27.7615L33.7881 15.1974C37.911 12.5297 43.0001 16.802 41.0867 21.3245L36.6302 31.8581Z" fill="#00C48B"/>
</svg>
