<svg fill="none" height="18" viewBox="0 0 77 18" width="77" xmlns="http://www.w3.org/2000/svg"><g fill="#fff"><path d="m0 17.5h4.1l.925-3.35h7.3l.925 3.35h4.1l-5.2-17.5h-6.95zm5.975-6.85 2.675-9.85h.05l2.675 9.85z"/><path d="m22.9357 10.675h6.975v-3.425h-6.975v-3.725h7.825v-3.525h-11.7v17.5h3.875z"/><path d="m37.3465 4.65c-3.325 0-5.55 2.75-5.55 6.6s2.225 6.6 5.55 6.6c1.95 0 3.525-.95 4.5-2.525v2.175h3.75v-12.5h-3.75v2.175c-.975-1.575-2.55-2.525-4.5-2.525zm4.5 6.6c0 1.8-1.35 3.2-3.15 3.2s-3.15-1.4-3.15-3.2 1.35-3.2 3.15-3.2 3.15 1.4 3.15 3.2z"/><path d="m47.5871 17.5h3.75v-6.725c0-1.625 1.2-2.5 2.525-2.5.475 0 1.05.125 1.425.275v-3.9h-.625c-2.025 0-3.025 1.275-3.275 2.325h-.05v-1.975h-3.75z"/><path d="m63.0604 8.25c1.225 0 2.025.8 2.025 2.475v6.775h3.75v-6.625c0-1.675.9-2.625 2.275-2.625 1.225 0 2.025.8 2.025 2.475v6.775h3.75v-6.975c0-4.325-2.3-5.875-4.775-5.875-1.825 0-3.35 1.025-3.975 2.4-.9-1.7-2.35-2.4-3.75-2.4-1.45 0-2.925.775-3.6 2.275v-1.925h-3.75v12.5h3.75v-6.625c0-1.675.9-2.625 2.275-2.625z"/></g></svg>
