<svg width="32" height="32" viewBox="0 0 32 32" fill="none" xmlns="http://www.w3.org/2000/svg">
<path fill-rule="evenodd" clip-rule="evenodd" d="M0 16C0 7.16479 7.16479 0 16 0C24.8352 0 32 7.16479 32 16C32 24.8352 24.8352 32 16 32C7.16479 32 0 24.8352 0 16ZM25.3334 8.31189L23.844 9.73678C23.7164 9.83245 23.6511 9.99422 23.6783 10.1521V20.6264C23.6511 20.7836 23.7172 20.9453 23.8447 21.0418L25.2992 22.4659V22.7778H17.9787V22.4651L19.4876 21.0052C19.6339 20.859 19.6339 20.8131 19.6339 20.5899V12.1269L15.4393 22.7506H14.8723L9.99408 12.1269V19.2467C9.9513 19.5477 10.0516 19.8471 10.264 20.0633L12.224 22.4348V22.7467H6.66675V22.4387L8.62675 20.0633C8.83519 19.8479 8.93164 19.543 8.87797 19.2467V11.0154C8.90053 10.7876 8.81186 10.5612 8.6423 10.4064L6.90241 8.31189V8H12.3126L16.4963 17.1529L20.1736 8H25.3334V8.31189Z" fill="#F5F5F5"/>
</svg>
