<svg width="32" height="32" viewBox="0 0 32 32" fill="none" xmlns="http://www.w3.org/2000/svg">
<path d="M16 32C24.8387 32 32 24.8387 32 16C32 7.16133 24.8387 0 16 0C7.16133 0 0 7.16133 0 16C0 24.8387 7.16133 32 16 32ZM6.32133 15.6533L21.748 9.70533C22.464 9.44667 23.0893 9.88 22.8573 10.9627L22.8587 10.9613L20.232 23.336C20.0373 24.2133 19.516 24.4267 18.7867 24.0133L14.7867 21.0653L12.8573 22.924C12.644 23.1373 12.464 23.3173 12.0507 23.3173L12.3347 19.2467L19.748 12.5493C20.0707 12.2653 19.676 12.1053 19.2507 12.388L10.0893 18.156L6.14 16.924C5.28267 16.652 5.264 16.0667 6.32133 15.6533Z" fill="#F5F5F5"/>
</svg>
