<svg width="478" height="480" viewBox="0 0 478 480" fill="none" xmlns="http://www.w3.org/2000/svg">
<path fill-rule="evenodd" clip-rule="evenodd" d="M307.91 91.1123H298.75H136.85H127.428L121.452 83.8274L99.5834 57.1693V439.654C99.5834 450.654 108.5 459.571 119.5 459.571H318.667C329.666 459.571 338.583 450.654 338.583 439.654V55.3272L313.872 84.1573L307.91 91.1123ZM338.583 24.7234L328.625 36.3415L298.75 71.1957H136.85L99.5834 25.7664L96.5704 22.0934L88.8404 12.6703L86.7593 10.1334C84.3768 7.22902 79.6667 8.91374 79.6667 12.6703V15.9516V28.1396V32.8903V439.654C79.6667 461.653 97.5007 479.487 119.5 479.487H318.667C320.2 479.487 321.714 479.401 323.202 479.232H370.82C396.674 479.232 417.634 458.272 417.634 432.418V359.116C417.634 347.89 426.735 338.789 437.961 338.789C449.188 338.789 458.289 347.89 458.289 359.116V377.808C458.289 382.397 463.231 385.287 467.23 383.037L474.942 378.7C476.831 377.637 478 375.638 478 373.47V359.116C478 337.003 460.074 319.077 437.961 319.077C415.849 319.077 397.923 337.003 397.923 359.116V432.418C397.923 447.386 385.788 459.521 370.82 459.521H353.2C356.571 453.673 358.5 446.889 358.5 439.654V32.0911V27.7672V25.2552V15.7289V12.3004C358.5 8.58675 353.88 6.87761 351.463 9.6972L349.232 12.3004L341.397 21.4405L338.583 24.7234ZM278.833 180.737C284.333 180.737 288.792 176.279 288.792 170.779C288.792 165.279 284.333 160.821 278.833 160.821C273.334 160.821 268.875 165.279 268.875 170.779C268.875 176.279 273.334 180.737 278.833 180.737ZM278.833 200.654C295.333 200.654 308.708 187.278 308.708 170.779C308.708 154.279 295.333 140.904 278.833 140.904C262.334 140.904 248.958 154.279 248.958 170.779C248.958 187.278 262.334 200.654 278.833 200.654ZM169.292 170.779C169.292 176.279 164.833 180.737 159.333 180.737C153.834 180.737 149.375 176.279 149.375 170.779C149.375 165.279 153.834 160.821 159.333 160.821C164.833 160.821 169.292 165.279 169.292 170.779ZM189.208 170.779C189.208 187.278 175.833 200.654 159.333 200.654C142.834 200.654 129.458 187.278 129.458 170.779C129.458 154.279 142.834 140.904 159.333 140.904C175.833 140.904 189.208 154.279 189.208 170.779ZM208.53 243.411L197.918 241.634C194.649 241.087 192.444 237.994 192.991 234.726L194.298 226.918C194.845 223.649 197.938 221.444 201.206 221.991L218.446 224.877L234.465 222.055C237.728 221.48 240.84 223.66 241.415 226.923L242.788 234.72C243.363 237.983 241.183 241.095 237.92 241.67L228.447 243.338V251.156C228.447 254.47 225.761 257.156 222.447 257.156H214.53C211.217 257.156 208.53 254.47 208.53 251.156V243.411Z" fill="#E72258"/>
</svg>
