<svg width="80" height="80" viewBox="0 0 80 80" fill="none" xmlns="http://www.w3.org/2000/svg">
<path d="M2 40C2 19.0166 19.0166 2 40 2C60.9834 2 78 19.0166 78 40C78 60.9834 60.9834 78 40 78C19.0166 78 2 60.9834 2 40Z" fill="#00C48B" stroke="#F5F5F5" stroke-width="4"/>
<path d="M58.61 26.3419L62.3337 22.7797V22H49.4342L40.2409 44.8822L29.7817 22H16.2562V22.7797L20.6059 28.0161C21.0298 28.4031 21.2514 28.9689 21.195 29.5386V50.1167C21.3292 50.8575 21.0881 51.6197 20.567 52.1583L15.667 58.0967V58.8667H29.56V58.087L24.66 52.1583C24.1292 51.6178 23.8784 50.8692 23.9853 50.1167V32.3172L36.1809 58.8764H37.5984L48.0848 32.3172V53.4747C48.0848 54.0328 48.0848 54.1475 47.7192 54.5131L43.947 58.1628V58.9445H62.2481V58.1647L58.612 54.6045C58.2931 54.3633 58.1278 53.9589 58.1959 53.5661V27.3803C58.1278 26.9856 58.2912 26.5811 58.61 26.3419Z" fill="white"/>
</svg>
