<svg width="80" height="80" viewBox="0 0 80 80" fill="none" xmlns="http://www.w3.org/2000/svg">
<path d="M78 40C78 60.9921 60.9921 78 40 78C19.0079 78 2 60.9921 2 40C2 19.0079 19.0079 2 40 2C60.9921 2 78 19.0079 78 40Z" fill="#00C48B" stroke="#F5F5F5" stroke-width="4"/>
<path d="M54.8699 23.2633L16.3032 38.1333C13.6599 39.1666 13.7066 40.63 15.8499 41.31L25.7232 44.39L48.6266 29.97C49.6899 29.2633 50.6766 29.6633 49.8699 30.3733L31.3366 47.1166L30.6266 57.2933C31.6599 57.2933 32.1099 56.8433 32.6432 56.31L37.4666 51.6633L47.4666 59.0333C49.2899 60.0666 50.5932 59.5333 51.0799 57.34L57.6466 26.4033L57.6432 26.4066C58.2232 23.7 56.6599 22.6166 54.8699 23.2633Z" fill="white"/>
</svg>
