<svg width="80" height="80" viewBox="0 0 80 80" fill="none" xmlns="http://www.w3.org/2000/svg">
<path d="M2 40C2 19.0166 19.0166 2 40 2C60.9834 2 78 19.0166 78 40C78 60.9834 60.9834 78 40 78C19.0166 78 2 60.9834 2 40Z" fill="#00C48B" stroke="#F5F5F5" stroke-width="4"/>
<path d="M58.2898 32.3744C58.2898 31.9771 58.2812 31.5815 58.2635 31.1879C60.0562 29.8921 61.6144 28.2747 62.843 26.4332C61.1981 27.1644 59.4281 27.657 57.5708 27.8792C59.4666 26.7421 60.9216 24.944 61.6083 22.801C59.834 23.8527 57.8699 24.6168 55.7782 25.0294C54.1028 23.2448 51.7175 22.1284 49.0765 22.1284C44.0063 22.1284 39.8944 26.2404 39.8944 31.3087C39.8944 32.0289 39.9756 32.7296 40.1331 33.4022C32.5024 33.0183 25.7361 29.3647 21.2085 23.8093C20.4199 25.1661 19.9652 26.7421 19.9652 28.4242C19.9652 31.6096 21.5857 34.4215 24.0509 36.0664C22.5446 36.02 21.1298 35.6062 19.8926 34.9183C19.8914 34.9568 19.8914 34.994 19.8914 35.0355C19.8914 39.4813 23.056 43.1941 27.2571 44.0352C26.4856 44.2457 25.6738 44.3586 24.8358 44.3586C24.2456 44.3586 23.67 44.3 23.1104 44.1926C24.2798 47.8407 27.6685 50.4951 31.6876 50.5696C28.5449 53.0323 24.5862 54.4996 20.2844 54.4996C19.5441 54.4996 18.8129 54.4575 18.0945 54.3727C22.1576 56.9771 26.9824 58.4968 32.1674 58.4968C49.0552 58.4962 58.2898 44.5063 58.2898 32.3744Z" fill="white"/>
</svg>
