<?xml version="1.0" encoding="UTF-8" standalone="no"?>
<!DOCTYPE svg PUBLIC "-//W3C//DTD SVG 1.1//EN" "http://www.w3.org/Graphics/SVG/1.1/DTD/svg11.dtd">
<svg width="100%" height="100%" viewBox="0 0 41 50" version="1.1" xmlns="http://www.w3.org/2000/svg" xmlns:xlink="http://www.w3.org/1999/xlink" xml:space="preserve" xmlns:serif="http://www.serif.com/" style="fill-rule:evenodd;clip-rule:evenodd;stroke-linejoin:round;stroke-miterlimit:2;">
    <g transform="matrix(1,0,0,1,-10.8513,0)">
        <path d="M45.734,22.209L48.89,20.103C50.49,19.042 51.443,17.329 51.443,15.529L51.443,3.79C51.443,1.702 49.57,0 47.271,0L41.2,0L41.2,8.462L37.402,8.462L37.402,4.032L31.147,1.759L24.892,4.032L24.892,10.343L21.095,10.343L21.095,0L15.024,0C12.725,0 10.851,1.702 10.851,3.79L10.851,15.535C10.851,17.334 11.804,19.042 13.404,20.109L16.567,22.215C17.246,22.665 17.646,23.391 17.646,24.153L17.646,33.181C17.646,34.9 16.827,36.526 15.398,37.651L13.265,39.33C11.728,40.535 10.851,42.289 10.851,44.129L10.851,49.684L51.443,49.684L51.443,44.129C51.443,42.283 50.56,40.535 49.03,39.33L46.896,37.651C45.467,36.526 44.648,34.9 44.648,33.181L44.648,24.147C44.654,23.386 45.055,22.659 45.734,22.209ZM44.642,40.016L46.776,41.695C47.55,42.306 48.001,43.195 48.001,44.129L48.001,46.546L14.312,46.546L14.312,44.129C14.312,43.195 14.757,42.306 15.538,41.695L17.672,40.016C18.631,39.261 19.405,38.361 19.977,37.363L35.783,37.363C36.012,37.363 36.234,37.265 36.38,37.103L37.142,36.238C37.364,35.984 37.364,35.626 37.142,35.373L36.38,34.507C36.234,34.346 36.018,34.248 35.783,34.248L21.025,34.248C21.069,33.896 21.095,33.532 21.095,33.175L21.095,24.147C21.095,22.388 20.161,20.721 18.605,19.676L15.443,17.571C14.725,17.092 14.3,16.331 14.3,15.523L14.3,3.79C14.3,3.427 14.623,3.132 15.024,3.132L17.646,3.132L17.646,13.475L28.34,13.475L28.34,6.149L31.147,5.128L33.954,6.149L33.954,11.595L44.648,11.595L44.648,3.132L47.271,3.132C47.671,3.132 47.995,3.427 47.995,3.79L47.995,15.535C47.995,16.342 47.569,17.104 46.852,17.582L43.689,19.688C42.127,20.726 41.2,22.399 41.2,24.153L41.2,33.181C41.2,35.805 42.457,38.297 44.642,40.016Z" style="fill:url(#_Linear1);fill-rule:nonzero;"/>
    </g>
    <defs>
        <linearGradient id="_Linear1" x1="0" y1="0" x2="1" y2="0" gradientUnits="userSpaceOnUse" gradientTransform="matrix(3.04235e-15,-49.6853,49.6853,3.04235e-15,31.1503,49.6825)"><stop offset="0" style="stop-color:rgb(0,255,255);stop-opacity:1"/><stop offset="1" style="stop-color:rgb(0,249,169);stop-opacity:1"/></linearGradient>
    </defs>
</svg>
